<svg id="visual" viewBox="0 0 900 600" width="900" height="600" xmlns="http://www.w3.org/2000/svg" xmlns:xlink="http://www.w3.org/1999/xlink" version="1.1"><path d="M0 217L13.7 203C27.3 189 54.7 161 82 158C109.3 155 136.7 177 163.8 181C191 185 218 171 245.2 170C272.3 169 299.7 181 327 182C354.3 183 381.7 173 409 156C436.3 139 463.7 115 491 135C518.3 155 545.7 219 573 232C600.3 245 627.7 207 654.8 183C682 159 709 149 736.2 143C763.3 137 790.7 135 818 146C845.3 157 872.7 181 886.3 193L900 205L900 0L886.3 0C872.7 0 845.3 0 818 0C790.7 0 763.3 0 736.2 0C709 0 682 0 654.8 0C627.7 0 600.3 0 573 0C545.7 0 518.3 0 491 0C463.7 0 436.3 0 409 0C381.7 0 354.3 0 327 0C299.7 0 272.3 0 245.2 0C218 0 191 0 163.8 0C136.7 0 109.3 0 82 0C54.7 0 27.3 0 13.7 0L0 0Z" fill="#abc9f4"></path><path d="M0 349L13.7 330C27.3 311 54.7 273 82 270C109.3 267 136.7 299 163.8 309C191 319 218 307 245.2 307C272.3 307 299.7 319 327 314C354.3 309 381.7 287 409 258C436.3 229 463.7 193 491 208C518.3 223 545.7 289 573 303C600.3 317 627.7 279 654.8 255C682 231 709 221 736.2 224C763.3 227 790.7 243 818 263C845.3 283 872.7 307 886.3 319L900 331L900 203L886.3 191C872.7 179 845.3 155 818 144C790.7 133 763.3 135 736.2 141C709 147 682 157 654.8 181C627.7 205 600.3 243 573 230C545.7 217 518.3 153 491 133C463.7 113 436.3 137 409 154C381.7 171 354.3 181 327 180C299.7 179 272.3 167 245.2 168C218 169 191 183 163.8 179C136.7 175 109.3 153 82 156C54.7 159 27.3 187 13.7 201L0 215Z" fill="#98bdf2"></path><path d="M0 475L13.7 473C27.3 471 54.7 467 82 466C109.3 465 136.7 467 163.8 468C191 469 218 469 245.2 461C272.3 453 299.7 437 327 430C354.3 423 381.7 425 409 419C436.3 413 463.7 399 491 406C518.3 413 545.7 441 573 452C600.3 463 627.7 457 654.8 453C682 449 709 447 736.2 439C763.3 431 790.7 417 818 414C845.3 411 872.7 419 886.3 423L900 427L900 329L886.3 317C872.7 305 845.3 281 818 261C790.7 241 763.3 225 736.2 222C709 219 682 229 654.8 253C627.7 277 600.3 315 573 301C545.7 287 518.3 221 491 206C463.7 191 436.3 227 409 256C381.7 285 354.3 307 327 312C299.7 317 272.3 305 245.2 305C218 305 191 317 163.8 307C136.7 297 109.3 265 82 268C54.7 271 27.3 309 13.7 328L0 347Z" fill="#85b0ef"></path><path d="M0 523L13.7 520C27.3 517 54.7 511 82 512C109.3 513 136.7 521 163.8 522C191 523 218 517 245.2 516C272.3 515 299.7 519 327 519C354.3 519 381.7 515 409 509C436.3 503 463.7 495 491 501C518.3 507 545.7 527 573 529C600.3 531 627.7 515 654.8 507C682 499 709 499 736.2 495C763.3 491 790.7 483 818 486C845.3 489 872.7 503 886.3 510L900 517L900 425L886.3 421C872.7 417 845.3 409 818 412C790.7 415 763.3 429 736.2 437C709 445 682 447 654.8 451C627.7 455 600.3 461 573 450C545.7 439 518.3 411 491 404C463.7 397 436.3 411 409 417C381.7 423 354.3 421 327 428C299.7 435 272.3 451 245.2 459C218 467 191 467 163.8 466C136.7 465 109.3 463 82 464C54.7 465 27.3 469 13.7 471L0 473Z" fill="#749fe3"></path><path d="M0 601L13.7 601C27.3 601 54.7 601 82 601C109.3 601 136.7 601 163.8 601C191 601 218 601 245.2 601C272.3 601 299.7 601 327 601C354.3 601 381.7 601 409 601C436.3 601 463.7 601 491 601C518.3 601 545.7 601 573 601C600.3 601 627.7 601 654.8 601C682 601 709 601 736.2 601C763.3 601 790.7 601 818 601C845.3 601 872.7 601 886.3 601L900 601L900 515L886.3 508C872.7 501 845.3 487 818 484C790.7 481 763.3 489 736.2 493C709 497 682 497 654.8 505C627.7 513 600.3 529 573 527C545.7 525 518.3 505 491 499C463.7 493 436.3 501 409 507C381.7 513 354.3 517 327 517C299.7 517 272.3 513 245.2 514C218 515 191 521 163.8 520C136.7 519 109.3 511 82 510C54.7 509 27.3 515 13.7 518L0 521Z" fill="#638fd6"></path></svg>